<svg width="24" height="24" viewBox="0 0 24 24" fill="none" xmlns="http://www.w3.org/2000/svg">
<path d="M13.3099 20.3999C11.9876 20.6065 10.6352 20.4979 9.36284 20.0829C8.09044 19.668 6.93401 18.9585 5.98766 18.0122C5.04132 17.0658 4.33181 15.9094 3.91689 14.637C3.50197 13.3646 3.39336 12.0122 3.59991 10.6899C3.07865 9.69842 2.88817 8.5662 3.05632 7.45873C3.22448 6.35125 3.74244 5.3266 4.53452 4.53452C5.3266 3.74244 6.35125 3.22448 7.45873 3.05632C8.5662 2.88817 9.69842 3.07865 10.6899 3.59991C12.0122 3.39336 13.3646 3.50197 14.637 3.91689C15.9094 4.33181 17.0658 5.04132 18.0122 5.98766C18.9585 6.93401 19.668 8.09044 20.0829 9.36284C20.4979 10.6352 20.6065 11.9876 20.3999 13.3099C20.9212 14.3014 21.1117 15.4336 20.9435 16.5411C20.7754 17.6486 20.2574 18.6732 19.4653 19.4653C18.6732 20.2574 17.6486 20.7754 16.5411 20.9435C15.4336 21.1117 14.3014 20.9212 13.3099 20.3999ZM12.0519 17.1559H12.0119C14.8839 17.1559 16.3149 15.7699 16.3149 13.9129C16.3149 12.7149 15.7639 11.4419 13.5889 10.9549L11.6059 10.5149C10.8509 10.3429 9.98391 10.1149 9.98391 9.39991C9.98391 8.68491 10.6039 8.18691 11.7079 8.18691C13.9379 8.18691 13.7349 9.71491 14.8389 9.71491C15.4149 9.71491 15.9319 9.37291 15.9319 8.78491C15.9319 7.41491 13.7349 6.38491 11.8759 6.38491C9.85491 6.38491 7.70291 7.24391 7.70291 9.52891C7.70291 10.6269 8.09691 11.7989 10.2629 12.3419L12.9519 13.0129C13.7679 13.2149 13.9699 13.6719 13.9699 14.0849C13.9699 14.7719 13.2859 15.4429 12.0519 15.4429C9.63491 15.4429 9.97391 13.5859 8.67791 13.5859C8.09791 13.5859 7.67491 13.9839 7.67491 14.5569C7.67491 15.6709 9.02691 17.1549 12.0519 17.1549V17.1559Z" fill="#FF5300"/>
</svg>
